<svg width="28" height="28" viewBox="0 0 28 28" fill="none" xmlns="http://www.w3.org/2000/svg">
<g clip-path="url(#clip0_102_425)">
<path d="M27.6579 26.0085L19.6955 18.0461C21.2378 16.141 22.1664 13.7201 22.1664 11.0835C22.1664 4.97257 17.1941 0.000270844 11.0832 0.000270844C4.97225 0.000270844 0 4.97252 0 11.0835C0 17.1944 4.9723 22.1667 11.0832 22.1667C13.7199 22.1667 16.1407 21.2381 18.0458 19.6957L26.0082 27.6581C26.2357 27.8856 26.5344 28 26.8331 28C27.1318 28 27.4304 27.8856 27.6579 27.6581C28.1141 27.202 28.1141 26.4647 27.6579 26.0085ZM11.0832 19.8334C6.25794 19.8334 2.33333 15.9088 2.33333 11.0835C2.33333 6.25815 6.25794 2.33354 11.0832 2.33354C15.9085 2.33354 19.8332 6.25815 19.8332 11.0835C19.8332 15.9088 15.9085 19.8334 11.0832 19.8334Z" fill="black"/>
</g>
<defs>
<clipPath id="clip0_102_425">
<rect width="28" height="28" fill="white"/>
</clipPath>
</defs>
</svg>
