<svg width="31" height="31" viewBox="0 0 31 31" fill="none" xmlns="http://www.w3.org/2000/svg">
<g clip-path="url(#clip0_102_203)">
<path d="M30.1563 14.5677C30.1559 14.5673 30.1556 14.5669 30.1552 14.5666L24.032 8.47284C23.5732 8.01633 22.8312 8.01803 22.3746 8.47682C21.9181 8.93555 21.9198 9.67752 22.3786 10.1341L26.4897 14.2253H1.67188C1.02465 14.2253 0.5 14.75 0.5 15.3972C0.5 16.0444 1.02465 16.5691 1.67188 16.5691H26.4897L22.3786 20.6603C21.9199 21.1169 21.9181 21.8589 22.3747 22.3176C22.8313 22.7765 23.5733 22.778 24.032 22.3216L30.1553 16.2278C30.1556 16.2275 30.1559 16.2271 30.1563 16.2267C30.6153 15.7686 30.6138 15.0243 30.1563 14.5677Z" fill="#AA3312"/>
</g>
<defs>
<clipPath id="clip0_102_203">
<rect width="30" height="30" fill="white" transform="translate(0.5 0.397217)"/>
</clipPath>
</defs>
</svg>
