<svg width="30" height="31" viewBox="0 0 30 31" fill="none" xmlns="http://www.w3.org/2000/svg">
<g clip-path="url(#clip0_102_352)">
<path d="M29.6563 14.8497C29.6559 14.8493 29.6556 14.8489 29.6552 14.8486L23.532 8.75482C23.0732 8.29832 22.3312 8.30002 21.8746 8.7588C21.4181 9.21753 21.4198 9.95951 21.8786 10.4161L25.9897 14.5073H1.17188C0.524648 14.5073 0 15.032 0 15.6792C0 16.3264 0.524648 16.8511 1.17188 16.8511H25.9897L21.8786 20.9423C21.4199 21.3989 21.4181 22.1409 21.8747 22.5996C22.3313 23.0584 23.0733 23.06 23.532 22.6036L29.6553 16.5098C29.6556 16.5095 29.6559 16.5091 29.6563 16.5087C30.1153 16.0506 30.1138 15.3062 29.6563 14.8497Z" fill="#AA3312"/>
</g>
<defs>
<clipPath id="clip0_102_352">
<rect width="30" height="30" fill="white" transform="translate(0 0.679199)"/>
</clipPath>
</defs>
</svg>
