<svg width="31" height="30" viewBox="0 0 31 30" fill="none" xmlns="http://www.w3.org/2000/svg">
<g clip-path="url(#clip0_102_553)">
<path d="M30.1563 14.1705C30.1559 14.1701 30.1556 14.1697 30.1552 14.1694L24.032 8.07562C23.5732 7.61912 22.8312 7.62082 22.3746 8.07961C21.9181 8.53834 21.9198 9.28031 22.3786 9.73687L26.4897 13.8281H1.67188C1.02465 13.8281 0.5 14.3528 0.5 15C0.5 15.6472 1.02465 16.1719 1.67188 16.1719H26.4897L22.3786 20.2631C21.9199 20.7197 21.9181 21.4617 22.3747 21.9204C22.8313 22.3792 23.5733 22.3808 24.032 21.9244L30.1553 15.8306C30.1556 15.8303 30.1559 15.8299 30.1563 15.8295C30.6153 15.3714 30.6138 14.627 30.1563 14.1705Z" fill="white"/>
</g>
<defs>
<clipPath id="clip0_102_553">
<rect width="30" height="30" fill="white" transform="translate(0.5)"/>
</clipPath>
</defs>
</svg>
